<svg version="1.1" id="Layer_1" xmlns="http://www.w3.org/2000/svg" xmlns:xlink="http://www.w3.org/1999/xlink" x="0px" y="0px"
	 width="100%" viewBox="0 0 512 512" enable-background="new 0 0 512 512" xml:space="preserve">
<path fill="#FEFEFE" opacity="1.000000" stroke="none" 
	d="
M513.000000,194.000000 
	C513.000000,300.640747 513.000000,406.781494 513.000000,512.961121 
	C342.400909,512.961121 171.801804,512.961121 1.101355,512.961121 
	C1.101355,342.442627 1.101355,171.885147 1.101355,1.163839 
	C171.666534,1.163839 342.333252,1.163839 513.000000,1.163839 
	C513.000000,65.198151 513.000000,129.349075 513.000000,194.000000 
M55.869171,386.851257 
	C58.742317,390.171539 61.615463,393.491821 64.821938,397.197296 
	C65.961563,394.660004 66.542442,393.366730 67.591545,391.557770 
	C73.799286,375.687286 82.351402,361.993317 100.052116,357.176208 
	C101.075066,357.408264 102.098007,357.640320 103.042534,358.599823 
	C104.265915,360.079834 105.489296,361.559845 106.990837,363.673035 
	C128.085724,386.050446 152.843323,403.915741 178.461548,420.720825 
	C178.223236,421.286560 177.984909,421.852295 177.746597,422.417999 
	C172.931641,421.200714 168.116684,419.983429 163.301712,418.766144 
	C164.384964,421.052399 165.794861,422.417358 167.453598,423.330078 
	C183.101105,431.939819 198.299713,441.602081 214.612320,448.697205 
	C229.743210,455.278351 246.077118,459.093658 261.879517,464.692566 
	C261.932800,464.873474 261.986084,465.054382 261.099457,465.300171 
	C253.390366,464.899811 245.681259,464.499451 237.663040,463.780548 
	C237.101028,463.830750 236.539032,463.880920 235.214417,463.653687 
	C227.123764,462.173553 219.033127,460.693420 210.550568,458.800873 
	C210.015274,458.760864 209.479980,458.720825 208.345444,458.304596 
	C207.878876,458.270172 207.412292,458.235748 206.552170,457.802948 
	C206.016022,457.786591 205.479889,457.770233 204.276672,457.280579 
	C198.096146,455.387421 191.915619,453.494293 185.338669,451.111450 
	C184.545868,450.877533 183.753052,450.643616 182.379013,449.970856 
	C180.159790,449.185577 177.940567,448.400299 175.308960,447.132263 
	C174.527832,446.871765 173.746704,446.611267 172.360214,445.941040 
	C165.609528,442.810638 158.858856,439.680206 151.636215,435.966461 
	C149.809052,435.572235 147.981888,435.178040 146.154739,434.783844 
	C145.976395,435.278595 145.798050,435.773376 145.619705,436.268127 
	C147.302521,437.218842 148.985336,438.169525 151.015045,439.722443 
	C161.031906,445.064972 171.048767,450.407471 181.451447,456.173798 
	C181.980011,456.323456 182.508560,456.473114 183.656296,457.044647 
	C186.442947,458.010742 189.229614,458.976807 192.369064,460.426544 
	C192.916550,460.581268 193.464050,460.736023 194.574356,461.211060 
	C195.402817,461.398468 196.231293,461.585846 197.453949,462.179565 
	C197.984161,462.291901 198.514359,462.404236 199.712570,462.852173 
	C201.155640,463.184082 202.598724,463.515991 204.438293,464.239014 
	C204.976898,464.279449 205.515488,464.319885 206.728638,464.843628 
	C211.492813,465.871063 216.256989,466.898499 221.390732,468.371429 
	C221.940353,468.440002 222.489975,468.508575 223.680435,468.829468 
	C224.136230,468.827301 224.592041,468.825134 225.560806,469.212311 
	C226.391281,469.273346 227.221741,469.334381 228.753708,469.714996 
	C229.519974,469.745178 230.286240,469.775391 231.346344,470.148468 
	C231.910858,470.138794 232.475388,470.129150 233.703003,470.423584 
	C235.146027,470.577820 236.589050,470.732025 238.446289,471.220184 
	C239.311264,471.187073 240.176239,471.153931 241.769867,471.433685 
	C244.185455,471.602905 246.601059,471.772125 249.728546,472.230652 
	C251.832184,472.344971 253.935822,472.459290 256.929779,472.868958 
	C264.606689,472.762421 272.283569,472.655853 280.745544,472.779327 
	C282.825043,472.503662 284.904541,472.227997 287.857361,472.104340 
	C291.565613,471.756470 295.273895,471.408630 299.341522,471.318085 
	C299.885101,471.183533 300.428680,471.048981 301.729034,471.035248 
	C303.472290,470.736023 305.215576,470.436798 307.328796,470.390076 
	C307.868286,470.204407 308.407745,470.018738 309.758514,469.935272 
	C310.823212,469.756470 311.887909,469.577698 313.475281,469.632324 
	C313.979095,469.408142 314.482941,469.183990 315.793640,469.025055 
	C316.847443,468.834930 317.901215,468.644806 319.491089,468.624908 
	C319.979492,468.371063 320.467896,468.117249 321.775330,467.943970 
	C326.643188,466.916748 331.559845,466.078094 336.371490,464.833527 
	C394.204254,449.874969 438.228943,416.360870 468.916534,365.346283 
	C481.260742,344.825378 489.817383,322.698425 494.315887,298.539246 
	C494.371277,297.981598 494.426697,297.423981 494.783264,296.107361 
	C495.172211,293.401978 495.561157,290.696564 496.348206,287.546021 
	C496.336823,286.979675 496.325439,286.413330 496.583496,285.071075 
	C496.669861,283.704956 496.756226,282.338837 497.252289,280.439850 
	C497.224945,279.572784 497.197632,278.705750 497.389221,276.975891 
	C497.544586,273.975525 497.699951,270.975159 498.198914,267.286926 
	C498.092407,264.199951 497.985901,261.112976 497.984467,257.126862 
	C497.703674,253.093399 497.422852,249.059937 497.436005,244.573196 
	C497.216888,243.730835 496.997742,242.888489 496.816681,241.219177 
	C496.643524,239.860336 496.470398,238.501495 496.565033,236.535690 
	C496.331879,235.700012 496.098724,234.864319 495.916382,233.203125 
	C492.017487,219.081680 488.118561,204.960236 484.240082,190.767670 
	C484.240082,190.767670 484.196930,190.554352 483.820831,189.757446 
	C481.068665,184.103577 478.701721,178.217972 475.473053,172.850739 
	C470.756805,165.010666 465.421844,157.542770 460.059967,149.278946 
	C457.692780,145.950562 455.608765,142.369232 452.904602,139.341858 
	C445.201721,130.718292 437.246216,122.320396 429.176544,113.221756 
	C428.485260,112.734833 427.793976,112.247917 426.830048,111.164108 
	C423.946289,108.749870 421.062531,106.335632 417.924957,103.298637 
	C416.679565,102.380867 415.434204,101.463097 413.827301,100.013557 
	C411.360107,98.282860 408.892914,96.552162 406.123108,94.269615 
	C405.401581,93.885544 404.680084,93.501472 403.585632,92.554802 
	C388.505096,81.752670 373.043701,71.603073 355.269928,64.128052 
	C353.834076,63.551113 352.398224,62.974174 350.365692,61.933243 
	C340.232025,58.664803 330.098358,55.396366 319.541504,51.743858 
	C319.019073,51.589542 318.496643,51.435230 317.268463,50.969318 
	C315.504181,50.674252 313.739929,50.379185 311.619324,49.629456 
	C311.066437,49.571907 310.513550,49.514355 309.334045,49.160866 
	C308.876434,49.152855 308.418823,49.144844 307.460846,48.728676 
	C306.624664,48.681973 305.788452,48.635265 304.268768,48.228180 
	C303.505951,48.174885 302.743164,48.121586 301.544922,47.729893 
	C301.013306,47.768841 300.481720,47.807789 299.150421,47.451153 
	C294.093933,46.989441 289.037415,46.527725 283.367615,45.744770 
	C282.235199,45.607731 281.102783,45.470692 279.073334,45.057224 
	C269.723938,45.134636 260.374542,45.212048 250.257767,45.138515 
	C248.512070,45.446079 246.766373,45.753647 244.122955,45.924141 
	C238.095718,46.595734 232.068481,47.267326 225.545975,47.720886 
	C225.050079,47.874725 224.554199,48.028564 223.236115,48.114864 
	C222.172775,48.346939 221.109451,48.579018 219.549515,48.563480 
	C219.052353,48.769478 218.555191,48.975475 217.366745,49.092922 
	C216.923782,49.217972 216.480835,49.343021 215.417099,49.311653 
	C214.633163,49.608570 213.849243,49.905491 212.266769,50.101879 
	C204.859497,51.935375 197.452209,53.768875 189.512314,55.427402 
	C189.030685,55.689384 188.549057,55.951366 187.363113,56.153488 
	C186.249771,56.521675 185.136444,56.889862 183.454514,57.168068 
	C182.985199,57.493500 182.515869,57.818932 181.285599,58.088779 
	C172.200790,61.480721 163.115982,64.872665 153.458817,68.214447 
	C152.981216,68.503784 152.503601,68.793121 151.298920,69.092102 
	C147.544235,70.861923 143.685074,72.440872 140.050674,74.430428 
	C91.687767,100.905624 55.036255,138.744125 32.008007,188.864197 
	C11.621260,233.235138 7.313402,279.325317 22.647078,326.273529 
	C29.281395,346.586273 38.856323,365.572510 52.883465,382.732330 
	C53.829765,383.880157 54.776062,385.027985 55.869171,386.851257 
M365.802704,56.819901 
	C352.131042,50.670132 338.103027,45.802998 322.864441,44.981979 
	C351.916809,53.469227 378.835938,66.427620 404.738434,83.606491 
	C402.811157,77.251465 390.984711,69.349815 365.802704,56.819901 
M185.614639,467.992798 
	C164.518188,458.370514 143.421738,448.748260 122.033470,438.992859 
	C131.231766,450.746704 186.099533,475.936951 197.622116,472.717804 
	C193.073059,470.954132 189.692535,469.643494 185.614639,467.992798 
z"/>
<path fill="#010101" opacity="1.000000" stroke="none" 
	d="
M184.023102,57.258049 
	C185.136444,56.889862 186.249771,56.521675 187.852875,56.384529 
	C188.910065,56.277840 189.477493,55.940105 190.044937,55.602371 
	C197.452209,53.768875 204.859497,51.935375 212.846680,50.380310 
	C214.297028,50.261852 215.167450,49.864967 216.037872,49.468079 
	C216.480835,49.343021 216.923782,49.217972 217.833405,49.338043 
	C218.882080,49.325809 219.464096,49.068451 220.046112,48.811096 
	C221.109451,48.579018 222.172775,48.346939 223.759705,48.345261 
	C224.869263,48.363411 225.455261,48.151165 226.041245,47.938919 
	C232.068481,47.267326 238.095718,46.595734 244.818207,46.260223 
	C247.350693,46.160694 249.187927,45.725079 251.025162,45.289463 
	C260.374542,45.212048 269.723938,45.134636 279.590851,45.513809 
	C281.399231,46.002262 282.690063,46.034138 283.980927,46.066013 
	C289.037415,46.527725 294.093933,46.989441 299.640503,47.870087 
	C300.747162,48.215443 301.363770,48.141865 301.980347,48.068283 
	C302.743164,48.121586 303.505951,48.174885 304.689178,48.684757 
	C306.060120,49.139835 307.010681,49.138332 307.961212,49.136833 
	C308.418823,49.144844 308.876434,49.152855 309.685242,49.571163 
	C310.682831,50.015678 311.329254,50.049896 311.975647,50.084118 
	C313.739929,50.379185 315.504181,50.674252 317.647827,51.396355 
	C318.673035,51.924900 319.318848,52.026417 319.964691,52.127930 
	C330.098358,55.396366 340.232025,58.664803 350.737244,62.530045 
	C352.649506,63.626446 354.190247,64.126045 355.730957,64.625648 
	C373.043701,71.603073 388.505096,81.752670 403.836060,93.182343 
	C404.866241,94.147079 405.645996,94.484268 406.425720,94.821457 
	C408.892914,96.552162 411.360107,98.282860 413.977783,100.673752 
	C415.478424,102.196426 416.828613,103.058914 418.178772,103.921402 
	C421.062531,106.335632 423.946289,108.749870 426.977539,111.834915 
	C427.880066,112.948387 428.635101,113.391045 429.390106,113.833710 
	C437.246216,122.320396 445.201721,130.718292 452.904602,139.341858 
	C455.608765,142.369232 457.692780,145.950562 459.836365,149.637329 
	C459.012268,150.730911 457.742004,151.835403 457.912842,152.145355 
	C460.124878,156.157471 462.541901,160.056564 464.892029,164.357361 
	C471.250885,178.821259 477.624847,192.912003 483.975800,207.378006 
	C484.883179,210.368134 485.813568,212.982971 486.743927,215.597824 
	C488.030243,211.677490 488.939392,207.922562 485.411255,204.503082 
	C484.415222,201.006638 483.354218,197.948303 482.442474,194.846115 
	C481.932312,193.110413 480.739929,190.884842 484.219666,190.838791 
	C488.118561,204.960236 492.017487,219.081680 495.669128,233.783203 
	C495.713623,235.289734 496.005432,236.216202 496.297241,237.142670 
	C496.470398,238.501495 496.643524,239.860336 496.562378,241.823730 
	C496.586090,243.294327 496.864075,244.160400 497.142029,245.026474 
	C497.422852,249.059937 497.703674,253.093399 497.662415,257.864746 
	C497.512024,261.726715 497.683685,264.850739 497.855347,267.974792 
	C497.699951,270.975159 497.544586,273.975525 497.040710,277.540009 
	C496.742310,279.060333 496.792450,280.016510 496.842590,280.972717 
	C496.756226,282.338837 496.669861,283.704956 496.212097,285.530701 
	C495.877167,286.657257 495.913635,287.324219 495.950134,287.991180 
	C495.561157,290.696564 495.172211,293.401978 494.378601,296.521606 
	C493.965729,297.620972 493.957550,298.306030 493.949341,298.991119 
	C489.817383,322.698425 481.260742,344.825378 468.916534,365.346283 
	C438.228943,416.360870 394.204254,449.874969 336.371490,464.833527 
	C331.559845,466.078094 326.643188,466.916748 321.229034,467.691895 
	C320.106812,467.778107 319.530914,468.116394 318.955017,468.454712 
	C317.901215,468.644806 316.847443,468.834930 315.262085,468.775085 
	C314.137909,468.816376 313.545258,469.107666 312.952637,469.398926 
	C311.887909,469.577698 310.823212,469.756470 309.192841,469.667603 
	C308.071045,469.645782 307.514954,469.891663 306.958832,470.137543 
	C305.215576,470.436798 303.472290,470.736023 301.202271,470.751740 
	C300.111023,470.665741 299.546600,470.863251 298.982147,471.060760 
	C295.273895,471.408630 291.565613,471.756470 287.163757,471.760437 
	C284.300262,471.794159 282.130371,472.171722 279.960480,472.549316 
	C272.283569,472.655853 264.606689,472.762421 256.374878,472.381287 
	C253.552200,471.909485 251.284424,471.925415 249.016647,471.941345 
	C246.601059,471.772125 244.185455,471.602905 241.239807,471.012329 
	C239.817184,470.689362 238.924637,470.787811 238.032074,470.886230 
	C236.589050,470.732025 235.146027,470.577820 233.253860,470.028320 
	C232.220642,469.690552 231.636581,469.748047 231.052505,469.805573 
	C230.286240,469.775391 229.519974,469.745178 228.325668,469.279907 
	C226.947693,468.837555 225.997772,468.830261 225.047836,468.822998 
	C224.592041,468.825134 224.136230,468.827301 223.326187,468.437622 
	C222.321671,468.005829 221.671417,467.965881 221.021149,467.925964 
	C216.256989,466.898499 211.492813,465.871063 206.334244,464.360535 
	C205.307175,463.867584 204.674484,463.857758 204.041809,463.847931 
	C202.598724,463.515991 201.155640,463.184082 199.344208,462.430298 
	C198.337143,461.930023 197.698441,461.851624 197.059753,461.773254 
	C196.231293,461.585846 195.402817,461.398468 194.263367,460.767456 
	C193.306992,460.196869 192.661636,460.069885 192.016266,459.942902 
	C189.229614,458.976807 186.442947,458.010742 183.321777,456.572296 
	C182.346710,455.983307 181.706161,455.866669 181.065613,455.750000 
	C171.048767,450.407471 161.031906,445.064972 151.173431,439.216766 
	C151.590591,437.990631 151.849380,437.270203 152.108185,436.549774 
	C158.858856,439.680206 165.609528,442.810638 172.761307,446.491455 
	C174.015381,447.232910 174.868378,447.423950 175.721359,447.614990 
	C177.940567,448.400299 180.159790,449.185577 182.776215,450.528931 
	C184.027313,451.258423 184.881210,451.429810 185.735092,451.601166 
	C191.915619,453.494293 198.096146,455.387421 204.677628,457.747803 
	C205.700958,458.210480 206.323349,458.205902 206.945724,458.201324 
	C207.412292,458.235748 207.878876,458.270172 208.700653,458.731628 
	C209.684738,459.176880 210.313614,459.195068 210.942490,459.213257 
	C219.033127,460.693420 227.123764,462.173553 235.725784,464.029053 
	C236.815491,464.302612 237.393829,464.200836 237.972168,464.099060 
	C245.681259,464.499451 253.390366,464.899811 261.840759,465.570251 
	C265.729401,465.915466 268.876709,465.990631 272.198669,466.291809 
	C273.062347,466.289856 273.751312,466.061920 274.440277,465.834015 
	C274.387848,465.598206 274.335419,465.362427 274.282990,465.126617 
	C273.513306,465.088989 272.743622,465.051361 271.595184,464.957825 
	C268.104736,464.643555 264.993011,464.385193 261.881317,464.126831 
	C246.077118,459.093658 229.743210,455.278351 214.612320,448.697205 
	C198.299713,441.602081 183.101105,431.939819 167.453598,423.330078 
	C165.794861,422.417358 164.384964,421.052399 163.301712,418.766144 
	C168.116684,419.983429 172.931641,421.200714 177.746597,422.417999 
	C177.984909,421.852295 178.223236,421.286560 178.461548,420.720825 
	C152.843323,403.915741 128.085724,386.050446 107.025375,363.021423 
	C108.343697,362.713867 109.802826,362.775391 110.883820,363.446259 
	C120.550858,369.445679 130.125916,375.593445 139.799255,381.582520 
	C141.217117,382.460358 143.009293,382.733612 144.628281,383.286621 
	C137.923370,377.233002 130.713562,372.394836 123.622681,367.388245 
	C118.371040,363.680267 113.274109,359.753204 107.950546,355.621765 
	C105.310982,352.811859 102.995514,350.102692 100.289856,347.865448 
	C98.431870,346.329102 96.031815,345.448364 93.520645,344.171875 
	C92.413536,343.786926 91.390610,343.727264 90.946014,343.189453 
	C82.407135,332.860565 73.199463,322.985718 65.593529,312.003479 
	C45.297493,282.697845 35.853321,250.465149 43.380478,214.805527 
	C46.382404,200.584015 52.166782,187.110153 60.360516,175.041641 
	C68.081657,163.669205 76.715485,152.916428 85.255234,141.770294 
	C86.959000,139.975052 88.355347,138.300568 90.047119,136.417725 
	C91.001709,135.429947 91.660858,134.650513 92.320007,133.871078 
	C92.156204,133.535980 91.992401,133.200882 91.828598,132.865784 
	C90.831177,133.188492 89.833748,133.511215 88.451965,133.996338 
	C86.043182,136.438385 84.018768,138.718018 81.685593,141.130569 
	C63.810551,159.687485 50.496113,180.869247 42.447365,204.948364 
	C38.053894,218.092148 34.921974,231.791321 32.638947,245.476562 
	C28.890934,267.943420 29.886057,290.489471 33.713810,312.985260 
	C36.951626,332.014008 43.451160,349.994720 49.681129,368.248779 
	C50.407578,369.939117 51.391720,371.400208 52.580311,373.078644 
	C53.522789,373.861725 54.260822,374.427429 54.924767,375.330444 
	C55.217430,377.782227 55.584187,379.896698 55.550571,382.008728 
	C54.349495,382.037537 53.548786,382.068787 52.748077,382.100037 
	C38.856323,365.572510 29.281395,346.586273 22.647078,326.273529 
	C7.313402,279.325317 11.621260,233.235138 32.008007,188.864197 
	C55.036255,138.744125 91.687767,100.905624 140.050674,74.430428 
	C143.685074,72.440872 147.544235,70.861923 151.818054,69.304504 
	C152.901840,69.099472 153.466507,68.682037 154.031174,68.264603 
	C163.115982,64.872665 172.200790,61.480721 181.826019,58.328518 
	C182.918655,58.131523 183.470886,57.694786 184.023102,57.258049 
M100.476456,125.064209 
	C100.554497,124.674477 100.632538,124.284737 100.710579,123.895004 
	C100.479729,123.954575 100.248871,124.014145 99.134178,123.997093 
	C98.806808,124.489876 98.479431,124.982658 98.152061,125.475449 
	C98.779343,125.376183 99.406616,125.276924 100.476456,125.064209 
M261.074554,66.627571 
	C262.781891,67.050476 264.489197,67.473389 266.816193,68.021179 
	C267.199524,68.177475 267.582886,68.333763 268.056000,69.005196 
	C268.697754,69.026978 269.339478,69.048759 270.745972,69.015541 
	C281.784760,73.044052 293.291901,76.130928 303.747925,81.331200 
	C317.918213,88.378746 331.282867,97.046043 345.115662,105.746376 
	C345.931061,106.090584 346.746460,106.434792 348.201355,106.913376 
	C375.999939,127.126488 400.787628,150.262085 418.532471,180.104279 
	C428.056122,196.120529 434.764526,213.160324 435.427216,232.499466 
	C435.865906,234.339340 436.304596,236.179199 436.960144,238.894608 
	C436.878845,241.589508 436.797546,244.284424 436.046692,247.141998 
	C436.023499,248.759262 436.000336,250.376526 436.096527,252.856720 
	C435.232361,257.288849 434.368225,261.720978 432.947449,266.536102 
	C431.399902,271.153900 429.852386,275.771667 428.023346,281.229492 
	C431.909088,278.549927 438.343323,266.944733 438.957520,262.019440 
	C440.849731,258.139954 442.882080,254.321808 444.611603,250.371109 
	C456.690552,222.779343 458.707703,194.526245 449.768005,165.672668 
	C440.532623,135.864868 420.844208,113.505066 397.208191,94.492935 
	C366.815369,70.045845 331.746979,56.217846 292.963165,51.080605 
	C292.314636,51.030880 291.666107,50.981155 290.107117,51.004383 
	C274.074066,51.011688 258.040985,51.018993 241.734482,50.566669 
	C241.144409,50.908562 240.554337,51.250454 239.154633,51.901127 
	C234.429413,52.576427 229.704193,53.251732 224.737457,53.510860 
	C224.141556,53.749763 223.545639,53.988667 222.197479,54.634350 
	C208.807281,58.426289 195.417084,62.218224 181.605530,66.079865 
	C181.321320,66.186378 181.122314,66.380318 180.352570,66.731407 
	C179.924133,66.830170 179.495712,66.928940 178.368652,66.999374 
	C176.072113,68.983589 170.963333,67.157692 170.396973,73.420265 
	C174.185745,71.771698 177.101715,70.502899 180.803467,69.095413 
	C190.202805,67.399376 199.602142,65.703346 209.257370,64.431076 
	C209.880386,64.183746 210.503387,63.936413 211.995834,63.366356 
	C223.625641,63.439381 235.255463,63.512405 246.981827,64.084358 
	C247.651321,64.076462 248.320801,64.068565 249.891464,64.014244 
	C252.590744,64.057571 255.290039,64.100891 258.056976,64.755219 
	C258.885437,65.183632 259.713867,65.612053 261.074554,66.627571 
M379.723297,327.570770 
	C379.311951,328.229706 378.900604,328.888641 378.225555,329.969971 
	C383.415985,330.151184 384.703339,326.113922 387.667572,323.144592 
	C390.854858,320.243469 394.069305,317.371552 397.224945,314.436432 
	C415.203827,297.713623 428.488007,278.455841 430.914581,252.902008 
	C430.914490,251.926270 430.914368,250.950516 430.747070,249.076080 
	C430.789429,245.731003 430.831757,242.385941 431.412201,238.705338 
	C431.038208,237.796265 430.664185,236.887177 430.048950,235.152878 
	C428.830688,221.688126 424.105652,209.310562 418.107635,197.376617 
	C405.309326,171.912415 386.999451,150.707504 366.442444,131.314590 
	C349.445251,115.279900 330.989227,101.213280 309.944183,90.051155 
	C305.292145,87.599617 300.640106,85.148087 295.988068,82.696548 
	C295.636871,83.308632 295.285675,83.920715 294.934479,84.532799 
	C298.537964,86.694221 302.141479,88.855644 306.047668,91.656334 
	C308.285461,93.339607 310.689911,94.842690 312.735199,96.734131 
	C332.288635,114.816826 351.852448,132.978775 367.934265,154.292358 
	C375.371033,164.148514 380.932526,175.419647 386.480011,186.019913 
	C385.615753,186.028412 384.751495,186.036926 383.325623,185.681503 
	C377.223938,177.102371 371.122223,168.523239 364.967194,159.300659 
	C364.312866,158.866562 363.658539,158.432480 362.384155,157.744492 
	C361.189117,156.191147 359.994110,154.637787 358.657593,152.429550 
	C355.780090,149.195969 352.902588,145.962387 349.948578,142.069595 
	C347.416351,139.331024 344.884094,136.592453 342.351837,133.853882 
	C341.796600,134.380646 341.241364,134.907410 340.686127,135.434158 
	C343.099945,137.950409 345.513794,140.466660 348.007874,143.677383 
	C350.901154,147.258026 353.794434,150.838669 356.813385,155.094269 
	C359.815979,159.433533 363.083679,163.615402 365.771210,168.141739 
	C373.619171,181.359375 381.235535,194.714508 388.502075,208.350693 
	C388.971375,208.904495 389.440643,209.458298 390.327576,210.593460 
	C393.564606,221.391937 396.801636,232.190414 399.578674,243.237335 
	C399.878143,243.842789 400.177612,244.448227 400.763062,245.839081 
	C400.860779,247.220703 400.958527,248.602310 400.611572,250.200592 
	C400.804535,250.821014 400.997467,251.441437 401.499420,252.943756 
	C401.514099,259.613220 401.528748,266.282715 400.869263,273.186066 
	C400.902557,275.454834 400.935822,277.723602 401.057800,280.826721 
	C400.754303,282.779877 400.500793,284.742371 400.139252,286.684723 
	C397.666595,299.967773 392.325470,312.028564 384.059662,322.913788 
	C383.700592,322.935120 383.341492,322.956482 382.136688,322.968567 
	C381.573822,322.932281 381.010925,322.895966 380.726562,322.192627 
	C385.427917,312.147369 390.129242,302.102112 395.270508,291.895599 
	C395.253387,291.280823 395.236267,290.666016 395.168182,289.349518 
	C395.335938,288.918915 395.503693,288.488342 396.155121,287.933899 
	C396.140259,287.298157 396.125397,286.662415 396.069763,285.215637 
	C396.279816,284.163391 396.489868,283.111176 397.230560,281.868774 
	C397.201477,280.923737 397.172394,279.978668 397.030304,278.173004 
	C397.240265,276.468384 397.450226,274.763733 398.323944,272.714325 
	C398.107849,268.121735 397.891785,263.529175 397.294067,258.141022 
	C397.230499,256.084686 397.166901,254.028381 397.525085,251.727951 
	C397.260223,251.131393 396.995331,250.534851 396.374084,249.205429 
	C396.296051,248.124390 396.218018,247.043350 396.558990,245.717056 
	C396.275635,245.124283 395.992249,244.531494 395.342682,243.184586 
	C393.632904,237.104706 391.923096,231.024826 390.626099,224.639526 
	C390.217285,224.078125 389.808472,223.516724 388.982330,222.325592 
	C381.764038,202.906372 369.557404,187.267670 352.912964,174.196472 
	C352.120880,173.866074 351.328827,173.535660 349.882568,173.055542 
	C340.534790,167.289612 330.657410,163.094360 319.422302,163.343918 
	C300.724182,163.759262 285.977692,172.863785 273.467346,185.655823 
	C254.172699,205.384888 245.835052,229.576859 246.742950,256.999023 
	C247.867355,290.960052 261.742767,318.139069 290.735474,336.524567 
	C310.086121,348.795593 330.824890,353.032654 353.093262,344.332611 
	C364.025238,340.061646 372.087799,332.305725 379.840332,324.914032 
	C379.895172,325.610229 379.950043,326.306427 379.723297,327.570770 
M109.210609,339.290192 
	C101.969879,332.328308 94.948418,325.097137 85.404510,318.814209 
	C85.962746,320.804810 85.946465,321.402222 86.236855,321.688019 
	C99.942780,335.177612 113.650742,348.665527 127.465347,362.043274 
	C128.301331,362.852844 130.009537,362.761688 132.330795,363.346222 
	C128.037323,358.724304 124.541924,354.862488 120.935745,351.107025 
	C117.255287,347.274200 113.466003,343.545868 109.210609,339.290192 
M92.655708,130.012375 
	C92.843987,130.528275 93.032272,131.044174 93.220558,131.560074 
	C95.085693,129.838638 96.950829,128.117203 98.815956,126.395760 
	C98.418167,125.995178 98.020370,125.594597 97.622574,125.194016 
	C96.108849,126.542290 94.595123,127.890572 92.655708,130.012375 
M377.478943,331.601562 
	C377.478943,331.601562 377.398682,331.470978 377.478943,331.601562 
z"/>
<path fill="#070707" opacity="1.000000" stroke="none" 
	d="
M99.952682,356.700500 
	C82.351402,361.993317 73.799286,375.687286 67.005524,391.745667 
	C63.985298,387.527802 61.550179,383.122528 59.117199,378.716125 
	C57.501904,375.790619 55.889702,372.863434 54.159813,369.581909 
	C47.442448,356.487885 45.275410,342.507477 42.998398,328.619232 
	C41.042873,316.691895 41.347904,304.680420 43.068020,292.060425 
	C45.241211,295.451599 46.933037,298.259430 48.786209,300.956451 
	C61.771427,319.854675 77.500999,336.310608 94.305626,351.785095 
	C95.513168,352.897064 97.408646,353.261993 99.235992,354.147156 
	C99.642700,355.113556 99.797691,355.907013 99.952682,356.700500 
z"/>
<path fill="#1E1E1E" opacity="1.000000" stroke="none" 
	d="
M366.153748,56.956997 
	C390.984711,69.349815 402.811157,77.251465 404.738434,83.606491 
	C378.835938,66.427620 351.916809,53.469227 322.864441,44.981979 
	C338.103027,45.802998 352.131042,50.670132 366.153748,56.956997 
z"/>
<path fill="#1E1E1E" opacity="1.000000" stroke="none" 
	d="
M185.963318,468.162842 
	C189.692535,469.643494 193.073059,470.954132 197.622116,472.717804 
	C186.099533,475.936951 131.231766,450.746704 122.033470,438.992859 
	C143.421738,448.748260 164.518188,458.370514 185.963318,468.162842 
z"/>
<path fill="#DDDDDD" opacity="1.000000" stroke="none" 
	d="
M108.108261,355.923767 
	C113.274109,359.753204 118.371040,363.680267 123.622681,367.388245 
	C130.713562,372.394836 137.923370,377.233002 144.628281,383.286621 
	C143.009293,382.733612 141.217117,382.460358 139.799255,381.582520 
	C130.125916,375.593445 120.550858,369.445679 110.883820,363.446259 
	C109.802826,362.775391 108.343697,362.713867 106.886292,362.704834 
	C105.489296,361.559845 104.265915,360.079834 103.338837,358.359192 
	C105.126175,357.386963 106.617218,356.655365 108.108261,355.923767 
z"/>
<path fill="#272727" opacity="1.000000" stroke="none" 
	d="
M464.907135,163.984192 
	C462.541901,160.056564 460.124878,156.157471 457.912842,152.145355 
	C457.742004,151.835403 459.012268,150.730911 459.981659,149.955978 
	C465.421844,157.542770 470.756805,165.010666 475.473053,172.850739 
	C478.701721,178.217972 481.068665,184.103577 483.629395,190.599884 
	C482.041718,190.155029 480.190247,189.116409 479.327942,187.537537 
	C475.554260,180.627838 472.148071,173.517761 468.397156,166.594910 
	C467.768646,165.434906 466.096863,164.840149 464.907135,163.984192 
z"/>
<path fill="#C7C7C7" opacity="1.000000" stroke="none" 
	d="
M464.892029,164.357361 
	C466.096863,164.840149 467.768646,165.434906 468.397156,166.594910 
	C472.148071,173.517761 475.554260,180.627838 479.327942,187.537537 
	C480.190247,189.116409 482.041718,190.155029 483.817444,190.998322 
	C484.196930,190.554352 484.240082,190.767670 484.229858,190.803223 
	C480.739929,190.884842 481.932312,193.110413 482.442474,194.846115 
	C483.354218,197.948303 484.415222,201.006638 485.245544,204.817169 
	C484.717804,206.034958 484.358276,206.518845 483.998779,207.002747 
	C477.624847,192.912003 471.250885,178.821259 464.892029,164.357361 
z"/>
<path fill="#3C3C3C" opacity="1.000000" stroke="none" 
	d="
M54.276112,369.936981 
	C55.889702,372.863434 57.501904,375.790619 59.117199,378.716125 
	C61.550179,383.122528 63.985298,387.527802 66.771423,392.003479 
	C66.542442,393.366730 65.961563,394.660004 64.821938,397.197296 
	C61.615463,393.491821 58.742317,390.171539 56.119568,386.483856 
	C60.559399,384.306152 56.916584,383.295319 55.950943,382.011200 
	C55.584187,379.896698 55.217430,377.782227 54.941666,374.946045 
	C54.780476,372.795227 54.528294,371.366119 54.276112,369.936981 
z"/>
<path fill="#9E9E9E" opacity="1.000000" stroke="none" 
	d="
M107.950531,355.621765 
	C106.617218,356.655365 105.126175,357.386963 103.378044,357.995483 
	C102.098007,357.640320 101.075066,357.408264 100.002396,356.938354 
	C99.797691,355.907013 99.642700,355.113556 99.251335,353.792542 
	C97.301331,350.268188 95.587700,347.271362 93.874069,344.274567 
	C96.031815,345.448364 98.431870,346.329102 100.289856,347.865448 
	C102.995514,350.102692 105.310982,352.811859 107.950531,355.621765 
z"/>
<path fill="#3C3C3C" opacity="1.000000" stroke="none" 
	d="
M498.027130,267.630859 
	C497.683685,264.850739 497.512024,261.726715 497.609863,258.314331 
	C497.985901,261.112976 498.092407,264.199951 498.027130,267.630859 
z"/>
<path fill="#6E6E6E" opacity="1.000000" stroke="none" 
	d="
M272.024017,466.065826 
	C268.876709,465.990631 265.729401,465.915466 262.310730,465.537781 
	C261.986084,465.054382 261.932800,464.873474 261.880432,464.409698 
	C264.993011,464.385193 268.104736,464.643555 271.634033,465.219574 
	C272.042419,465.713440 272.033203,465.889648 272.024017,466.065826 
z"/>
<path fill="#070707" opacity="1.000000" stroke="none" 
	d="
M55.550568,382.008728 
	C56.916584,383.295319 60.559399,384.306152 56.046162,386.146118 
	C54.776062,385.027985 53.829765,383.880157 52.815773,382.416199 
	C53.548786,382.068787 54.349495,382.037537 55.550568,382.008728 
z"/>
<path fill="#161616" opacity="1.000000" stroke="none" 
	d="
M280.353027,472.664307 
	C282.130371,472.171722 284.300262,471.794159 286.727112,471.684448 
	C284.904541,472.227997 282.825043,472.503662 280.353027,472.664307 
z"/>
<path fill="#161616" opacity="1.000000" stroke="none" 
	d="
M249.372589,472.085999 
	C251.284424,471.925415 253.552200,471.909485 255.929718,472.233612 
	C253.935822,472.459290 251.832184,472.344971 249.372589,472.085999 
z"/>
<path fill="#161616" opacity="1.000000" stroke="none" 
	d="
M151.872192,436.258118 
	C151.849380,437.270203 151.590591,437.990631 150.999985,438.915649 
	C148.985336,438.169525 147.302521,437.218842 145.619705,436.268127 
	C145.798050,435.773376 145.976395,435.278595 146.154739,434.783844 
	C147.981888,435.178040 149.809052,435.572235 151.872192,436.258118 
z"/>
<path fill="#141414" opacity="1.000000" stroke="none" 
	d="
M250.641464,45.213989 
	C249.187927,45.725079 247.350693,46.160694 245.267059,46.328758 
	C246.766373,45.753647 248.512070,45.446079 250.641464,45.213989 
z"/>
<path fill="#141414" opacity="1.000000" stroke="none" 
	d="
M355.500427,64.376846 
	C354.190247,64.126045 352.649506,63.626446 351.035583,62.762039 
	C352.398224,62.974174 353.834076,63.551113 355.500427,64.376846 
z"/>
<path fill="#141414" opacity="1.000000" stroke="none" 
	d="
M283.674255,45.905392 
	C282.690063,46.034138 281.399231,46.002262 280.039368,45.652020 
	C281.102783,45.470692 282.235199,45.607731 283.674255,45.905392 
z"/>
<path fill="#141414" opacity="1.000000" stroke="none" 
	d="
M418.051880,103.610023 
	C416.828613,103.058914 415.478424,102.196426 414.158539,100.939636 
	C415.434204,101.463097 416.679565,102.380867 418.051880,103.610023 
z"/>
<path fill="#161616" opacity="1.000000" stroke="none" 
	d="
M238.239182,471.053223 
	C238.924637,470.787811 239.817184,470.689362 240.875488,470.855865 
	C240.176239,471.153931 239.311264,471.187073 238.239182,471.053223 
z"/>
<path fill="#3C3C3C" opacity="1.000000" stroke="none" 
	d="
M497.047424,280.706299 
	C496.792450,280.016510 496.742310,279.060333 496.931244,277.971405 
	C497.197632,278.705750 497.224945,279.572784 497.047424,280.706299 
z"/>
<path fill="#141414" opacity="1.000000" stroke="none" 
	d="
M307.711029,48.932755 
	C307.010681,49.138332 306.060120,49.139835 305.030945,48.864948 
	C305.788452,48.635265 306.624664,48.681973 307.711029,48.932755 
z"/>
<path fill="#3C3C3C" opacity="1.000000" stroke="none" 
	d="
M497.289001,244.799835 
	C496.864075,244.160400 496.586090,243.294327 496.543335,242.237213 
	C496.997742,242.888489 497.216888,243.730835 497.289001,244.799835 
z"/>
<path fill="#3C3C3C" opacity="1.000000" stroke="none" 
	d="
M496.431122,236.839172 
	C496.005432,236.216202 495.713623,235.289734 495.643707,234.195953 
	C496.098724,234.864319 496.331879,235.700012 496.431122,236.839172 
z"/>
<path fill="#141414" opacity="1.000000" stroke="none" 
	d="
M215.727478,49.389870 
	C215.167450,49.864967 214.297028,50.261852 213.245941,50.430573 
	C213.849243,49.905491 214.633163,49.608570 215.727478,49.389870 
z"/>
<path fill="#161616" opacity="1.000000" stroke="none" 
	d="
M225.304321,469.017639 
	C225.997772,468.830261 226.947693,468.837555 227.974915,469.120117 
	C227.221741,469.334381 226.391281,469.273346 225.304321,469.017639 
z"/>
<path fill="#141414" opacity="1.000000" stroke="none" 
	d="
M311.797485,49.856789 
	C311.329254,50.049896 310.682831,50.015678 309.998535,49.719131 
	C310.513550,49.514355 311.066437,49.571907 311.797485,49.856789 
z"/>
<path fill="#141414" opacity="1.000000" stroke="none" 
	d="
M225.793610,47.829903 
	C225.455261,48.151165 224.869263,48.363411 224.170792,48.379028 
	C224.554199,48.028564 225.050079,47.874725 225.793610,47.829903 
z"/>
<path fill="#161616" opacity="1.000000" stroke="none" 
	d="
M175.515167,447.373627 
	C174.868378,447.423950 174.015381,447.232910 173.063995,446.696320 
	C173.746704,446.611267 174.527832,446.871765 175.515167,447.373627 
z"/>
<path fill="#161616" opacity="1.000000" stroke="none" 
	d="
M185.536880,451.356323 
	C184.881210,451.429810 184.027313,451.258423 183.066833,450.748352 
	C183.753052,450.643616 184.545868,450.877533 185.536880,451.356323 
z"/>
<path fill="#161616" opacity="1.000000" stroke="none" 
	d="
M181.258530,455.961914 
	C181.706161,455.866669 182.346710,455.983307 183.012192,456.361328 
	C182.508560,456.473114 181.980011,456.323456 181.258530,455.961914 
z"/>
<path fill="#161616" opacity="1.000000" stroke="none" 
	d="
M206.748947,458.002136 
	C206.323349,458.205902 205.700958,458.210480 205.011169,457.984467 
	C205.479889,457.770233 206.016022,457.786591 206.748947,458.002136 
z"/>
<path fill="#161616" opacity="1.000000" stroke="none" 
	d="
M307.143799,470.263794 
	C307.514954,469.891663 308.071045,469.645782 308.787201,469.616516 
	C308.407745,470.018738 307.868286,470.204407 307.143799,470.263794 
z"/>
<path fill="#141414" opacity="1.000000" stroke="none" 
	d="
M189.778625,55.514885 
	C189.477493,55.940105 188.910065,56.277840 188.205032,56.414459 
	C188.549057,55.951366 189.030685,55.689384 189.778625,55.514885 
z"/>
<path fill="#141414" opacity="1.000000" stroke="none" 
	d="
M301.762634,47.899086 
	C301.363770,48.141865 300.747162,48.215443 300.040344,48.067883 
	C300.481720,47.807789 301.013306,47.768841 301.762634,47.899086 
z"/>
<path fill="#161616" opacity="1.000000" stroke="none" 
	d="
M210.746521,459.007080 
	C210.313614,459.195068 209.684738,459.176880 209.000275,458.919739 
	C209.479980,458.720825 210.015274,458.760864 210.746521,459.007080 
z"/>
<path fill="#161616" opacity="1.000000" stroke="none" 
	d="
M192.192657,460.184723 
	C192.661636,460.069885 193.306992,460.196869 193.981964,460.607300 
	C193.464050,460.736023 192.916550,460.581268 192.192657,460.184723 
z"/>
<path fill="#161616" opacity="1.000000" stroke="none" 
	d="
M197.256851,461.976410 
	C197.698441,461.851624 198.337143,461.930023 199.010193,462.262482 
	C198.514359,462.404236 197.984161,462.291901 197.256851,461.976410 
z"/>
<path fill="#161616" opacity="1.000000" stroke="none" 
	d="
M204.240051,464.043457 
	C204.674484,463.857758 205.307175,463.867584 205.996979,464.118896 
	C205.515488,464.319885 204.976898,464.279449 204.240051,464.043457 
z"/>
<path fill="#161616" opacity="1.000000" stroke="none" 
	d="
M237.817596,463.939819 
	C237.393829,464.200836 236.815491,464.302612 236.107086,464.167755 
	C236.539032,463.880920 237.101028,463.830750 237.817596,463.939819 
z"/>
<path fill="#161616" opacity="1.000000" stroke="none" 
	d="
M299.161835,471.189423 
	C299.546600,470.863251 300.111023,470.665741 300.823853,470.691345 
	C300.428680,471.048981 299.885101,471.183533 299.161835,471.189423 
z"/>
<path fill="#141414" opacity="1.000000" stroke="none" 
	d="
M219.797821,48.687286 
	C219.464096,49.068451 218.882080,49.325809 218.179047,49.382317 
	C218.555191,48.975475 219.052353,48.769478 219.797821,48.687286 
z"/>
<path fill="#161616" opacity="1.000000" stroke="none" 
	d="
M221.205933,468.148682 
	C221.671417,467.965881 222.321671,468.005829 223.005768,468.311462 
	C222.489975,468.508575 221.940353,468.440002 221.205933,468.148682 
z"/>
<path fill="#161616" opacity="1.000000" stroke="none" 
	d="
M319.223053,468.539795 
	C319.530914,468.116394 320.106812,467.778107 320.819519,467.651611 
	C320.467896,468.117249 319.979492,468.371063 319.223053,468.539795 
z"/>
<path fill="#161616" opacity="1.000000" stroke="none" 
	d="
M313.213959,469.515625 
	C313.545258,469.107666 314.137909,468.816376 314.858673,468.742432 
	C314.482941,469.183990 313.979095,469.408142 313.213959,469.515625 
z"/>
<path fill="#161616" opacity="1.000000" stroke="none" 
	d="
M231.199432,469.977020 
	C231.636581,469.748047 232.220642,469.690552 232.922302,469.876282 
	C232.475388,470.129150 231.910858,470.138794 231.199432,469.977020 
z"/>
<path fill="#141414" opacity="1.000000" stroke="none" 
	d="
M319.753113,51.935894 
	C319.318848,52.026417 318.673035,51.924900 318.000702,51.552151 
	C318.496643,51.435230 319.019073,51.589542 319.753113,51.935894 
z"/>
<path fill="#141414" opacity="1.000000" stroke="none" 
	d="
M429.283325,113.527733 
	C428.635101,113.391045 427.880066,112.948387 427.113892,112.133362 
	C427.793976,112.247917 428.485260,112.734833 429.283325,113.527733 
z"/>
<path fill="#141414" opacity="1.000000" stroke="none" 
	d="
M406.274414,94.545532 
	C405.645996,94.484268 404.866241,94.147079 404.022522,93.463638 
	C404.680084,93.501472 405.401581,93.885544 406.274414,94.545532 
z"/>
<path fill="#191919" opacity="1.000000" stroke="none" 
	d="
M153.744995,68.239525 
	C153.466507,68.682037 152.901840,69.099472 152.181580,69.299683 
	C152.503601,68.793121 152.981216,68.503784 153.744995,68.239525 
z"/>
<path fill="#3C3C3C" opacity="1.000000" stroke="none" 
	d="
M496.149170,287.768616 
	C495.913635,287.324219 495.877167,286.657257 496.077393,285.918640 
	C496.325439,286.413330 496.336823,286.979675 496.149170,287.768616 
z"/>
<path fill="#141414" opacity="1.000000" stroke="none" 
	d="
M183.738800,57.213058 
	C183.470886,57.694786 182.918655,58.131523 182.206497,58.356308 
	C182.515869,57.818932 182.985199,57.493500 183.738800,57.213058 
z"/>
<path fill="#3C3C3C" opacity="1.000000" stroke="none" 
	d="
M494.132629,298.765198 
	C493.957550,298.306030 493.965729,297.620972 494.228027,296.901123 
	C494.426697,297.423981 494.371277,297.981598 494.132629,298.765198 
z"/>
<path fill="#FEFEFE" opacity="1.000000" stroke="none" 
	d="
M396.139954,245.962311 
	C396.218018,247.043350 396.296051,248.124390 396.436066,249.826477 
	C396.699829,250.955704 396.901581,251.463882 397.103333,251.972061 
	C397.166901,254.028381 397.230499,256.084686 397.410950,259.002655 
	C397.571930,264.262573 397.616058,268.660828 397.660187,273.059113 
	C397.450226,274.763733 397.240265,276.468384 396.908569,278.870056 
	C396.757874,280.397736 396.728882,281.228333 396.699890,282.058929 
	C396.489868,283.111176 396.279816,284.163391 395.881653,285.817749 
	C395.686218,286.965820 395.678833,287.511780 395.671448,288.057739 
	C395.503693,288.488342 395.335938,288.918915 395.001099,289.900146 
	C394.832886,290.986145 394.831726,291.521484 394.830566,292.056854 
	C390.129242,302.102112 385.427917,312.147369 380.404053,322.550598 
	C379.961853,323.229950 379.842194,323.551361 379.722534,323.872742 
	C372.087799,332.305725 364.025238,340.061646 353.093262,344.332611 
	C330.824890,353.032654 310.086121,348.795593 290.735474,336.524567 
	C261.742767,318.139069 247.867355,290.960052 246.742950,256.999023 
	C245.835052,229.576859 254.172699,205.384888 273.467346,185.655823 
	C285.977692,172.863785 300.724182,163.759262 319.422302,163.343918 
	C330.657410,163.094360 340.534790,167.289612 350.363983,173.405960 
	C351.576233,174.136765 352.307098,174.517166 353.037933,174.897552 
	C369.557404,187.267670 381.764038,202.906372 389.140930,222.924103 
	C389.604126,223.996719 389.908722,224.470840 390.213287,224.944946 
	C391.923096,231.024826 393.632904,237.104706 395.397095,243.819458 
	C395.681000,244.957001 395.910461,245.459656 396.139954,245.962311 
z"/>
<path fill="#F8F8F8" opacity="1.000000" stroke="none" 
	d="
M246.885269,63.585430 
	C235.255463,63.512405 223.625641,63.439381 211.301392,63.387520 
	C210.071808,63.608223 209.536636,63.807766 209.001480,64.007309 
	C199.602142,65.703346 190.202805,67.399376 180.117645,69.005989 
	C179.310318,68.286942 179.188797,67.657326 179.067276,67.027702 
	C179.495712,66.928940 179.924133,66.830170 180.926758,66.829948 
	C181.676254,66.622375 181.851562,66.316261 182.026886,66.010155 
	C195.417084,62.218224 208.807281,58.426289 222.826660,54.552292 
	C223.963562,54.289165 224.471268,54.108101 224.978973,53.927040 
	C229.704193,53.251732 234.429413,52.576427 239.837311,51.814369 
	C241.015976,51.493843 241.511963,51.260071 242.007935,51.026299 
	C258.040985,51.018993 274.074066,51.011688 290.767303,51.162849 
	C291.962708,51.418636 292.497894,51.515965 293.033112,51.613293 
	C331.746979,56.217846 366.815369,70.045845 397.208191,94.492935 
	C420.844208,113.505066 440.532623,135.864868 449.768005,165.672668 
	C458.707703,194.526245 456.690552,222.779343 444.611603,250.371109 
	C442.882080,254.321808 440.849731,258.139954 438.598572,262.568329 
	C436.661102,264.129181 435.082581,265.141144 433.504089,266.153107 
	C434.368225,261.720978 435.232361,257.288849 436.234863,252.115875 
	C436.487549,249.909790 436.601898,248.444550 436.716248,246.979324 
	C436.797546,244.284424 436.878845,241.589508 436.945953,238.074203 
	C436.611328,235.505524 436.290894,233.757248 435.970459,232.008972 
	C434.764526,213.160324 428.056122,196.120529 418.532471,180.104279 
	C400.787628,150.262085 375.999939,127.126488 347.719910,106.562416 
	C346.489990,105.813812 345.741577,105.416168 344.993134,105.018524 
	C331.282867,97.046043 317.918213,88.378746 303.747925,81.331200 
	C293.291901,76.130928 281.784760,73.044052 270.166595,68.842667 
	C269.046875,68.609879 268.506561,68.549965 267.966217,68.490051 
	C267.582886,68.333763 267.199524,68.177475 266.591492,67.681946 
	C266.918945,67.188316 267.471069,67.033928 268.395447,66.932327 
	C269.514404,66.933533 270.261108,66.881958 271.463409,66.905655 
	C278.942200,67.597488 285.965393,68.214058 293.350220,68.980789 
	C299.680511,70.750572 305.649139,72.370201 311.617737,73.989830 
	C311.791870,73.267677 311.965973,72.545525 312.140106,71.823380 
	C306.097565,70.202919 300.055023,68.582466 293.588318,66.908730 
	C285.775787,65.898102 278.387360,64.940758 270.561890,63.813423 
	C266.079620,63.810360 262.034485,63.977291 257.989319,64.144218 
	C255.290039,64.100891 252.590744,64.057571 249.219696,63.846943 
	C247.993713,63.648239 247.439484,63.616833 246.885269,63.585430 
M328.328674,66.026772 
	C323.208496,64.384964 318.088318,62.743160 312.968140,61.101357 
	C312.757050,61.575855 312.545959,62.050354 312.334900,62.524853 
	C335.846252,71.281937 357.552917,83.315125 378.595642,97.215790 
	C378.305756,95.629951 377.599121,94.268166 376.500763,93.404625 
	C362.032867,82.029701 345.841187,73.654381 328.328674,66.026772 
M427.814575,149.821335 
	C430.004517,154.522034 432.194489,159.222717 434.732635,164.670837 
	C435.537445,156.516647 424.883301,135.856247 420.043549,135.171417 
	C422.527863,139.862076 424.991058,144.512894 427.814575,149.821335 
z"/>
<path fill="#F5F5F5" opacity="1.000000" stroke="none" 
	d="
M388.942688,208.015747 
	C381.235535,194.714508 373.619171,181.359375 365.771210,168.141739 
	C363.083679,163.615402 359.815979,159.433533 356.922333,154.464996 
	C357.620544,153.585297 358.209808,153.334854 358.799103,153.084412 
	C359.994110,154.637787 361.189117,156.191147 362.729248,158.193512 
	C363.723053,159.076401 364.371796,159.510254 365.020538,159.944107 
	C371.122223,168.523239 377.223938,177.102371 383.648529,186.216110 
	C385.670044,189.324982 387.368652,191.899246 389.067261,194.473511 
	C389.587677,194.211075 390.108063,193.948639 390.628448,193.686203 
	C389.533691,191.140564 388.438965,188.594925 387.344208,186.049271 
	C380.932526,175.419647 375.371033,164.148514 367.934265,154.292358 
	C351.852448,132.978775 332.288635,114.816826 312.735199,96.734131 
	C310.689911,94.842690 308.285461,93.339607 306.053619,91.021164 
	C307.381195,90.476219 308.702820,90.566437 310.024445,90.656647 
	C330.989227,101.213280 349.445251,115.279900 366.442444,131.314590 
	C386.999451,150.707504 405.309326,171.912415 418.107635,197.376617 
	C424.105652,209.310562 428.830688,221.688126 430.092682,235.884705 
	C430.382294,237.424637 430.628174,238.232758 430.874084,239.040863 
	C430.831757,242.385941 430.789429,245.731003 430.630280,249.778030 
	C430.440796,251.327301 430.368103,252.174606 430.295410,253.021927 
	C428.488007,278.455841 415.203827,297.713623 397.224945,314.436432 
	C394.069305,317.371552 390.854858,320.243469 386.963501,323.175262 
	C385.699585,323.156799 385.139740,323.107635 384.579865,323.058472 
	C392.325470,312.028564 397.666595,299.967773 400.139252,286.684723 
	C400.500793,284.742371 400.754303,282.779877 401.206177,280.074097 
	C401.417480,277.198395 401.480438,275.075287 401.543396,272.952179 
	C401.528748,266.282715 401.514099,259.613220 401.490540,252.256958 
	C401.339844,251.041412 401.198029,250.512665 401.056274,249.983932 
	C400.958527,248.602310 400.860779,247.220703 400.723389,245.174103 
	C400.468689,244.002380 400.253693,243.495621 400.038635,242.988876 
	C396.801636,232.190414 393.564606,221.391937 390.149139,210.007233 
	C389.628021,208.952591 389.285370,208.484161 388.942688,208.015747 
M400.633789,202.041260 
	C402.493469,209.114044 404.724396,216.115036 406.109589,223.279556 
	C407.526947,230.610535 408.469238,238.078217 408.964783,245.529602 
	C409.437561,252.638504 409.066681,259.803497 409.066681,268.390381 
	C417.397980,241.420822 407.700867,190.604080 392.543488,181.592590 
	C395.319092,188.595764 397.836060,194.946365 400.633789,202.041260 
z"/>
<path fill="#F3F3F3" opacity="1.000000" stroke="none" 
	d="
M93.520645,344.171875 
	C95.587700,347.271362 97.301331,350.268188 98.999603,353.619629 
	C97.408646,353.261993 95.513168,352.897064 94.305626,351.785095 
	C77.500999,336.310608 61.771427,319.854675 48.786209,300.956451 
	C46.933037,298.259430 45.241211,295.451599 43.068020,292.060425 
	C41.347904,304.680420 41.042873,316.691895 42.998398,328.619232 
	C45.275410,342.507477 47.442448,356.487885 54.159813,369.581909 
	C54.528294,371.366119 54.780476,372.795227 55.015759,374.608765 
	C54.260822,374.427429 53.522789,373.861725 52.508762,372.736389 
	C51.468124,370.791016 50.703480,369.405273 49.938835,368.019531 
	C43.451160,349.994720 36.951626,332.014008 33.713810,312.985260 
	C29.886057,290.489471 28.890934,267.943420 32.638947,245.476562 
	C34.921974,231.791321 38.053894,218.092148 42.447365,204.948364 
	C50.496113,180.869247 63.810551,159.687485 82.014572,141.144196 
	C83.417480,141.313629 84.182648,141.602341 84.947815,141.891052 
	C76.715485,152.916428 68.081657,163.669205 60.360516,175.041641 
	C52.166782,187.110153 46.382404,200.584015 43.380478,214.805527 
	C35.853321,250.465149 45.297493,282.697845 65.593529,312.003479 
	C73.199463,322.985718 82.407135,332.860565 90.946014,343.189453 
	C91.390610,343.727264 92.413536,343.786926 93.520645,344.171875 
z"/>
<path fill="#E7E7E7" opacity="1.000000" stroke="none" 
	d="
M109.467491,339.531006 
	C113.466003,343.545868 117.255287,347.274200 120.935745,351.107025 
	C124.541924,354.862488 128.037323,358.724304 132.330795,363.346222 
	C130.009537,362.761688 128.301331,362.852844 127.465347,362.043274 
	C113.650742,348.665527 99.942780,335.177612 86.236855,321.688019 
	C85.946465,321.402222 85.962746,320.804810 85.404510,318.814209 
	C94.948418,325.097137 101.969879,332.328308 109.467491,339.531006 
z"/>
<path fill="#111111" opacity="1.000000" stroke="none" 
	d="
M433.225769,266.344604 
	C435.082581,265.141144 436.661102,264.129181 438.557983,262.915192 
	C438.343323,266.944733 431.909088,278.549927 428.023346,281.229492 
	C429.852386,275.771667 431.399902,271.153900 433.225769,266.344604 
z"/>
<path fill="#111111" opacity="1.000000" stroke="none" 
	d="
M309.984314,90.353897 
	C308.702820,90.566437 307.381195,90.476219 305.902283,90.701538 
	C302.141479,88.855644 298.537964,86.694221 294.934479,84.532799 
	C295.285675,83.920715 295.636871,83.308632 295.988068,82.696548 
	C300.640106,85.148087 305.292145,87.599617 309.984314,90.353897 
z"/>
<path fill="#C7C7C7" opacity="1.000000" stroke="none" 
	d="
M358.728333,152.756989 
	C358.209808,153.334854 357.620544,153.585297 356.859497,154.127533 
	C353.794434,150.838669 350.901154,147.258026 348.315643,143.271881 
	C349.090637,142.820526 349.557861,142.774658 350.025085,142.728790 
	C352.902588,145.962387 355.780090,149.195969 358.728333,152.756989 
z"/>
<path fill="#111111" opacity="1.000000" stroke="none" 
	d="
M349.986816,142.399200 
	C349.557861,142.774658 349.090637,142.820526 348.275513,142.924652 
	C345.513794,140.466660 343.099945,137.950409 340.686127,135.434158 
	C341.241364,134.907410 341.796600,134.380646 342.351837,133.853882 
	C344.884094,136.592453 347.416351,139.331024 349.986816,142.399200 
z"/>
<path fill="#141414" opacity="1.000000" stroke="none" 
	d="
M178.717957,67.013535 
	C179.188797,67.657326 179.310318,68.286942 179.724762,69.075333 
	C177.101715,70.502899 174.185745,71.771698 170.396973,73.420265 
	C170.963333,67.157692 176.072113,68.983589 178.717957,67.013535 
z"/>
<path fill="#272727" opacity="1.000000" stroke="none" 
	d="
M483.975769,207.378021 
	C484.358276,206.518845 484.717804,206.034958 485.243011,205.236969 
	C488.939392,207.922562 488.030243,211.677490 486.743927,215.597824 
	C485.813568,212.982971 484.883179,210.368134 483.975769,207.378021 
z"/>
<path fill="#191919" opacity="1.000000" stroke="none" 
	d="
M397.992065,272.886719 
	C397.616058,268.660828 397.571930,264.262573 397.601746,259.400452 
	C397.891785,263.529175 398.107849,268.121735 397.992065,272.886719 
z"/>
<path fill="#191919" opacity="1.000000" stroke="none" 
	d="
M384.319763,322.986145 
	C385.139740,323.107635 385.699585,323.156799 386.656433,323.347748 
	C384.703339,326.113922 383.415985,330.151184 378.225555,329.969971 
	C378.900604,328.888641 379.311951,328.229706 380.219513,327.245392 
	C381.471283,325.605957 382.226868,324.291870 382.982422,322.977844 
	C383.341492,322.956482 383.700592,322.935120 384.319763,322.986145 
z"/>
<path fill="#111111" opacity="1.000000" stroke="none" 
	d="
M386.912109,186.034592 
	C388.438965,188.594925 389.533691,191.140564 390.628448,193.686203 
	C390.108063,193.948639 389.587677,194.211075 389.067261,194.473511 
	C387.368652,191.899246 385.670044,189.324982 383.929321,186.398071 
	C384.751495,186.036926 385.615753,186.028412 386.912109,186.034592 
z"/>
<path fill="#111111" opacity="1.000000" stroke="none" 
	d="
M258.023132,64.449722 
	C262.034485,63.977291 266.079620,63.810360 270.566528,64.169281 
	C271.008118,65.406883 271.007965,66.118637 271.007782,66.830391 
	C270.261108,66.881958 269.514404,66.933533 268.295593,66.566498 
	C265.396393,66.112083 262.969360,66.076279 260.542328,66.040466 
	C259.713867,65.612053 258.885437,65.183632 258.023132,64.449722 
z"/>
<path fill="#DCDCDC" opacity="1.000000" stroke="none" 
	d="
M85.255234,141.770294 
	C84.182648,141.602341 83.417480,141.313629 82.323334,141.011276 
	C84.018768,138.718018 86.043182,136.438385 88.568588,134.731171 
	C89.296936,135.744415 89.524315,136.185257 89.751694,136.626083 
	C88.355347,138.300568 86.959000,139.975052 85.255234,141.770294 
z"/>
<path fill="#343434" opacity="1.000000" stroke="none" 
	d="
M260.808441,66.334015 
	C262.969360,66.076279 265.396393,66.112083 267.923309,66.513718 
	C267.471069,67.033928 266.918945,67.188316 266.281677,67.619507 
	C264.489197,67.473389 262.781891,67.050476 260.808441,66.334015 
z"/>
<path fill="#191919" opacity="1.000000" stroke="none" 
	d="
M401.206329,273.069122 
	C401.480438,275.075287 401.417480,277.198395 401.161804,279.656921 
	C400.935822,277.723602 400.902557,275.454834 401.206329,273.069122 
z"/>
<path fill="#F3F3F3" opacity="1.000000" stroke="none" 
	d="
M92.868546,129.625610 
	C94.595123,127.890572 96.108849,126.542290 97.622574,125.194016 
	C98.020370,125.594597 98.418167,125.995178 98.815956,126.395760 
	C96.950829,128.117203 95.085693,129.838638 93.220558,131.560074 
	C93.032272,131.044174 92.843987,130.528275 92.868546,129.625610 
z"/>
<path fill="#111111" opacity="1.000000" stroke="none" 
	d="
M435.698853,232.254211 
	C436.290894,233.757248 436.611328,235.505524 436.837524,237.636444 
	C436.304596,236.179199 435.865906,234.339340 435.698853,232.254211 
z"/>
<path fill="#070707" opacity="1.000000" stroke="none" 
	d="
M49.681133,368.248779 
	C50.703480,369.405273 51.468124,370.791016 52.304317,372.519043 
	C51.391720,371.400208 50.407578,369.939117 49.681133,368.248779 
z"/>
<path fill="#111111" opacity="1.000000" stroke="none" 
	d="
M382.559570,322.973206 
	C382.226868,324.291870 381.471283,325.605957 380.360321,326.961304 
	C379.950043,326.306427 379.895172,325.610229 379.781433,324.393372 
	C379.842194,323.551361 379.961853,323.229950 380.264771,322.884094 
	C381.010925,322.895966 381.573822,322.932281 382.559570,322.973206 
z"/>
<path fill="#111111" opacity="1.000000" stroke="none" 
	d="
M436.381470,247.060669 
	C436.601898,248.444550 436.487549,249.909790 436.175171,251.684402 
	C436.000336,250.376526 436.023499,248.759262 436.381470,247.060669 
z"/>
<path fill="#191919" opacity="1.000000" stroke="none" 
	d="
M396.965210,281.963867 
	C396.728882,281.228333 396.757874,280.397736 396.965088,279.300385 
	C397.172394,279.978668 397.201477,280.923737 396.965210,281.963867 
z"/>
<path fill="#111111" opacity="1.000000" stroke="none" 
	d="
M430.604980,252.961975 
	C430.368103,252.174606 430.440796,251.327301 430.713867,250.227386 
	C430.914368,250.950516 430.914490,251.926270 430.604980,252.961975 
z"/>
<path fill="#111111" opacity="1.000000" stroke="none" 
	d="
M431.143127,238.873108 
	C430.628174,238.232758 430.382294,237.424637 430.213318,236.297318 
	C430.664185,236.887177 431.038208,237.796265 431.143127,238.873108 
z"/>
<path fill="#161616" opacity="1.000000" stroke="none" 
	d="
M272.198669,466.291809 
	C272.033203,465.889648 272.042419,465.713440 272.012756,465.275482 
	C272.743622,465.051361 273.513306,465.088989 274.282990,465.126617 
	C274.335419,465.362427 274.387848,465.598206 274.440277,465.834015 
	C273.751312,466.061920 273.062347,466.289856 272.198669,466.291809 
z"/>
<path fill="#DCDCDC" opacity="1.000000" stroke="none" 
	d="
M88.952942,134.568756 
	C89.833748,133.511215 90.831177,133.188492 91.828598,132.865784 
	C91.992401,133.200882 92.156204,133.535980 92.320007,133.871078 
	C91.660858,134.650513 91.001709,135.429947 90.047127,136.417725 
	C89.524315,136.185257 89.296936,135.744415 88.952942,134.568756 
z"/>
<path fill="#141414" opacity="1.000000" stroke="none" 
	d="
M241.871216,50.796486 
	C241.511963,51.260071 241.015976,51.493843 240.242126,51.659981 
	C240.554337,51.250454 241.144409,50.908562 241.871216,50.796486 
z"/>
<path fill="#111111" opacity="1.000000" stroke="none" 
	d="
M364.993866,159.622375 
	C364.371796,159.510254 363.723053,159.076401 363.039246,158.320465 
	C363.658539,158.432480 364.312866,158.866562 364.993866,159.622375 
z"/>
<path fill="#191919" opacity="1.000000" stroke="none" 
	d="
M352.975464,174.547012 
	C352.307098,174.517166 351.576233,174.136765 350.691071,173.480820 
	C351.328827,173.535660 352.120880,173.866074 352.975464,174.547012 
z"/>
<path fill="#111111" opacity="1.000000" stroke="none" 
	d="
M345.054382,105.382446 
	C345.741577,105.416168 346.489990,105.813812 347.400146,106.495224 
	C346.746460,106.434792 345.931061,106.090584 345.054382,105.382446 
z"/>
<path fill="#111111" opacity="1.000000" stroke="none" 
	d="
M268.011108,68.747620 
	C268.506561,68.549965 269.046875,68.609879 269.784241,68.870171 
	C269.339478,69.048759 268.697754,69.026978 268.011108,68.747620 
z"/>
<path fill="#191919" opacity="1.000000" stroke="none" 
	d="
M388.722382,208.183228 
	C389.285370,208.484161 389.628021,208.952591 389.940308,209.716553 
	C389.440643,209.458298 388.971375,208.904495 388.722382,208.183228 
z"/>
<path fill="#191919" opacity="1.000000" stroke="none" 
	d="
M390.419678,224.792236 
	C389.908722,224.470840 389.604126,223.996719 389.349609,223.238968 
	C389.808472,223.516724 390.217285,224.078125 390.419678,224.792236 
z"/>
<path fill="#191919" opacity="1.000000" stroke="none" 
	d="
M399.808655,243.113098 
	C400.253693,243.495621 400.468689,244.002380 400.580414,244.781403 
	C400.177612,244.448227 399.878143,243.842789 399.808655,243.113098 
z"/>
<path fill="#191919" opacity="1.000000" stroke="none" 
	d="
M396.349457,245.839691 
	C395.910461,245.459656 395.681000,244.957001 395.580200,244.196533 
	C395.992249,244.531494 396.275635,245.124283 396.349457,245.839691 
z"/>
<path fill="#191919" opacity="1.000000" stroke="none" 
	d="
M397.314209,251.850006 
	C396.901581,251.463882 396.699829,250.955704 396.614258,250.192917 
	C396.995331,250.534851 397.260223,251.131393 397.314209,251.850006 
z"/>
<path fill="#191919" opacity="1.000000" stroke="none" 
	d="
M400.833923,250.092255 
	C401.198029,250.512665 401.339844,251.041412 401.335999,251.816010 
	C400.997467,251.441437 400.804535,250.821014 400.833923,250.092255 
z"/>
<path fill="#343434" opacity="1.000000" stroke="none" 
	d="
M246.933548,63.834892 
	C247.439484,63.616833 247.993713,63.648239 248.769104,63.870152 
	C248.320801,64.068565 247.651321,64.076462 246.933548,63.834892 
z"/>
<path fill="#343434" opacity="1.000000" stroke="none" 
	d="
M209.129425,64.219193 
	C209.536636,63.807766 210.071808,63.608223 210.866684,63.548882 
	C210.503387,63.936413 209.880386,64.183746 209.129425,64.219193 
z"/>
<path fill="#191919" opacity="1.000000" stroke="none" 
	d="
M395.913269,287.995819 
	C395.678833,287.511780 395.686218,286.965820 395.902039,286.223267 
	C396.125397,286.662415 396.140259,287.298157 395.913269,287.995819 
z"/>
<path fill="#191919" opacity="1.000000" stroke="none" 
	d="
M395.050537,291.976227 
	C394.831726,291.521484 394.832886,290.986145 395.026611,290.251007 
	C395.236267,290.666016 395.253387,291.280823 395.050537,291.976227 
z"/>
<path fill="#141414" opacity="1.000000" stroke="none" 
	d="
M224.858215,53.718948 
	C224.471268,54.108101 223.963562,54.289165 223.202789,54.348900 
	C223.545639,53.988667 224.141556,53.749763 224.858215,53.718948 
z"/>
<path fill="#141414" opacity="1.000000" stroke="none" 
	d="
M292.998138,51.346947 
	C292.497894,51.515965 291.962708,51.418636 291.222534,51.126373 
	C291.666107,50.981155 292.314636,51.030880 292.998138,51.346947 
z"/>
<path fill="#DCDCDC" opacity="1.000000" stroke="none" 
	d="
M100.018021,124.073715 
	C100.248871,124.014145 100.479729,123.954575 100.710579,123.895004 
	C100.632538,124.284737 100.554497,124.674477 100.235954,124.845169 
	C100.002975,124.441994 100.010498,124.257851 100.018021,124.073715 
z"/>
<path fill="#F3F3F3" opacity="1.000000" stroke="none" 
	d="
M99.576096,124.035400 
	C100.010498,124.257851 100.002975,124.441994 100.014679,124.901901 
	C99.406616,125.276924 98.779343,125.376183 98.152054,125.475449 
	C98.479431,124.982658 98.806808,124.489876 99.576096,124.035400 
z"/>
<path fill="#141414" opacity="1.000000" stroke="none" 
	d="
M181.816193,66.045006 
	C181.851562,66.316261 181.676254,66.622375 181.254730,66.795090 
	C181.122314,66.380318 181.321320,66.186378 181.816193,66.045006 
z"/>
<path fill="#191919" opacity="1.000000" stroke="none" 
	d="
M377.438812,331.536255 
	C377.398682,331.470978 377.478943,331.601562 377.438812,331.536255 
z"/>
<path fill="#292929" opacity="1.000000" stroke="none" 
	d="
M328.691925,66.177979 
	C345.841187,73.654381 362.032867,82.029701 376.500763,93.404625 
	C377.599121,94.268166 378.305756,95.629951 378.595642,97.215790 
	C357.552917,83.315125 335.846252,71.281937 312.334900,62.524853 
	C312.545959,62.050354 312.757050,61.575855 312.968140,61.101357 
	C318.088318,62.743160 323.208496,64.384964 328.691925,66.177979 
z"/>
<path fill="#393939" opacity="1.000000" stroke="none" 
	d="
M427.634399,149.492523 
	C424.991058,144.512894 422.527863,139.862076 420.043549,135.171417 
	C424.883301,135.856247 435.537445,156.516647 434.732635,164.670837 
	C432.194489,159.222717 430.004517,154.522034 427.634399,149.492523 
z"/>
<path fill="#070707" opacity="1.000000" stroke="none" 
	d="
M271.463409,66.905655 
	C271.007965,66.118637 271.008118,65.406883 271.003601,64.339272 
	C278.387360,64.940758 285.775787,65.898102 293.500488,67.161926 
	C293.554047,67.922478 293.271301,68.376556 292.988556,68.830635 
	C285.965393,68.214058 278.942200,67.597488 271.463409,66.905655 
z"/>
<path fill="#272727" opacity="1.000000" stroke="none" 
	d="
M293.350220,68.980789 
	C293.271301,68.376556 293.554047,67.922478 293.924622,67.215210 
	C300.055023,68.582466 306.097565,70.202919 312.140106,71.823380 
	C311.965973,72.545525 311.791870,73.267677 311.617737,73.989830 
	C305.649139,72.370201 299.680511,70.750572 293.350220,68.980789 
z"/>
<path fill="#222222" opacity="1.000000" stroke="none" 
	d="
M400.493408,201.669098 
	C397.836060,194.946365 395.319092,188.595764 392.543488,181.592590 
	C407.700867,190.604080 417.397980,241.420822 409.066681,268.390381 
	C409.066681,259.803497 409.437561,252.638504 408.964783,245.529602 
	C408.469238,238.078217 407.526947,230.610535 406.109589,223.279556 
	C404.724396,216.115036 402.493469,209.114044 400.493408,201.669098 
z"/>
</svg>